<svg xmlns="http://www.w3.org/2000/svg" fill="none" viewBox="0 0 156.03 100.39">
<path d="M2.64342 98.3728C1.32774 98.3728 0 97.9486 0 94.612C0 91.2753 1.76529 90.7466 3.11416 90.7466C3.707 90.7442 4.29279 90.8739 4.82816 91.126V92.1237C4.28707 91.9027 3.71104 91.7774 3.12623 91.7533C2.26018 91.7533 1.23118 92.1745 1.23118 94.5582C1.20704 96.9957 2.00067 97.3811 2.71584 97.3811C3.1019 97.3664 3.48576 97.3164 3.86252 97.2317V94.7434H2.7611L2.71584 93.7636H5.08163V97.9606C4.29113 98.2051 3.4711 98.3438 2.64342 98.3728Z" fill="#384951"/>
<path d="M10.2205 98.2771L10.0575 97.608C10.0575 97.608 9.30918 98.3817 8.36769 98.3817C7.4262 98.3817 6.78345 97.9784 6.78345 96.7388V92.6523H8.00557V96.5356C8.00557 97.1331 8.21681 97.3422 8.69962 97.3422C9.16639 97.2933 9.61241 97.1256 9.99417 96.8553V92.6523H11.2012V98.2771H10.2205Z" fill="#384951"/>
<path d="M15.9331 98.2773L15.7943 97.6798C15.6103 97.8985 15.3794 98.0738 15.1185 98.1932C14.8575 98.3125 14.573 98.3729 14.2855 98.3699C13.5885 98.3699 12.647 98.104 12.647 96.5776C12.647 95.0511 13.8993 94.7853 14.7985 94.7853H15.7491V94.2745C15.7491 93.6054 15.396 93.5426 14.8076 93.5426C14.2453 93.5765 13.6891 93.6768 13.1509 93.8414V92.8556C13.7533 92.6658 14.3807 92.5651 15.0128 92.5569C16.081 92.5569 16.9712 92.8317 16.9712 94.379V98.2773H15.9331ZM15.7611 95.4903H15.1968C14.3278 95.5142 13.8782 95.7023 13.8782 96.5298C13.8782 97.3035 14.2312 97.4409 14.6718 97.4409C15.0721 97.4145 15.4536 97.2628 15.7611 97.0077V95.4903Z" fill="#384951"/>
<path d="M20.7489 93.7219C20.4452 93.726 20.1543 93.8434 19.9341 94.0505V98.2773H18.709V92.6614H19.6716L19.8345 93.3186C19.9322 93.0995 20.09 92.9119 20.2901 92.7772C20.4901 92.6425 20.7244 92.5662 20.9661 92.5569C21.1499 92.5592 21.3329 92.5802 21.5123 92.6196V93.8384C21.2628 93.7727 21.0068 93.7336 20.7489 93.7219Z" fill="#384951"/>
<path d="M25.2756 98.2773L25.1368 97.6798C24.9527 97.8985 24.7219 98.0738 24.4609 98.1932C24.2 98.3125 23.9154 98.3729 23.628 98.3699C22.9339 98.3699 21.9924 98.104 21.9924 96.5776C21.9924 95.0511 23.2447 94.7853 24.144 94.7853H25.0945V94.2745C25.0945 93.6054 24.7415 93.5426 24.153 93.5426C23.5908 93.5765 23.0346 93.6768 22.4964 93.8414V92.8556C23.0987 92.6658 23.7261 92.5651 24.3582 92.5569C25.4265 92.5569 26.3166 92.8317 26.3166 94.379V98.2773H25.2756ZM25.1036 95.4903H24.5363C23.6702 95.5142 23.2206 95.7023 23.2206 96.5298C23.2206 97.3035 23.5737 97.4409 24.0142 97.4409C24.4145 97.4145 24.796 97.2628 25.1036 97.0077V95.4903Z" fill="#384951"/>
<path d="M31.5127 98.2773V94.2416C31.5127 93.6591 31.1807 93.5845 30.7341 93.5845C30.2245 93.6204 29.7333 93.7883 29.3098 94.0714V98.2773H28.1028V92.6614H29.0745L29.2887 93.3067C29.8108 92.8635 30.4642 92.6004 31.1506 92.5569C32.0921 92.5569 32.7469 92.9482 32.7469 94.2297V98.2773H31.5127Z" fill="#384951"/>
<path d="M35.9667 98.3726C35.1731 98.3726 34.5545 98.1187 34.5545 96.9119V93.4976H33.5889V92.6403H34.5545L34.6269 91.3797L35.7736 90.9465V92.6403H37.0561L36.9293 93.4976H35.7736V96.9089C35.7736 97.3211 35.9547 97.3749 36.2323 97.3749C36.5654 97.341 36.8947 97.277 37.216 97.1837V98.1486C36.8135 98.2857 36.3923 98.3612 35.9667 98.3726Z" fill="#384951"/>
<path d="M40.2997 99.0089C39.9467 100.174 39.2707 100.386 38.5978 100.386C38.2243 100.372 37.8541 100.311 37.4964 100.204V99.2628C37.8268 99.3407 38.1627 99.3936 38.5012 99.4211C38.8965 99.4211 39.1319 99.1224 39.2918 98.4772L39.3673 98.1785L37.2188 92.6582H38.6249L39.8893 96.894L40.9063 92.6582H42.2461L40.2997 99.0089Z" fill="#384951"/>
<path d="M49.7387 91.9322H48.0579V98.2769H46.8508V91.9322H45.0403V90.8508H49.8986L49.7387 91.9322Z" fill="#384951"/>
<path d="M52.1774 93.7219C51.8744 93.725 51.5841 93.8425 51.3657 94.0505V98.2773H50.1436V92.6614H51.1092L51.2691 93.3186C51.3672 93.0992 51.5256 92.9115 51.7262 92.7769C51.9268 92.6422 52.1615 92.566 52.4037 92.5569C52.5865 92.5593 52.7685 92.5803 52.9469 92.6196V93.8384C52.6954 93.7723 52.4374 93.7332 52.1774 93.7219Z" fill="#384951"/>
<path d="M57.2924 98.2771L57.1325 97.608C57.1325 97.608 56.3841 98.3817 55.4426 98.3817C54.5011 98.3817 53.8584 97.9784 53.8584 96.7388V92.6523H55.0654V96.5356C55.0654 97.1331 55.2797 97.3422 55.7625 97.3422C56.2293 97.2933 56.6753 97.1256 57.0571 96.8553V92.6523H58.2641V98.2771H57.2924Z" fill="#384951"/>
<path d="M61.0911 98.3725C60.6086 98.3526 60.1308 98.2702 59.6698 98.1276V97.112C60.1149 97.249 60.5729 97.341 61.0368 97.3868C61.5618 97.3868 62.0115 97.2912 62.0115 96.7087C62.0115 96.2337 61.6916 96.1113 61.2631 95.947L60.7592 95.7468C60.2884 95.5557 59.5732 95.1942 59.5732 94.1995C59.5732 93.0046 60.4785 92.5476 61.5739 92.5476C62.048 92.5504 62.5183 92.6322 62.965 92.7896V93.7544C62.5357 93.6279 62.0933 93.5498 61.6463 93.5214C61.0911 93.5214 60.7411 93.6678 60.7411 94.1188C60.7411 94.5699 61.1273 94.7013 61.4894 94.8387L62.0356 95.0389C62.3831 95.1366 62.6867 95.3482 62.8967 95.6391C63.1067 95.93 63.2106 96.2829 63.1913 96.64C63.1883 98.1395 62.0869 98.3725 61.0911 98.3725Z" fill="#384951"/>
<path d="M65.9918 98.3726C65.2012 98.3726 64.5796 98.1187 64.5796 96.9119V93.4976H63.6169V92.6403H64.5765L64.652 91.3797L65.7956 90.9465V92.6403H67.0811L66.9514 93.4976H65.7956V96.9089C65.7956 97.3211 65.9797 97.3749 66.2573 97.3749C66.5904 97.3407 66.9197 97.2767 67.2411 97.1837V98.1486C66.8386 98.2856 66.4173 98.3611 65.9918 98.3726Z" fill="#384951"/>
<path d="M72.4221 95.9559V98.2769H71.2151V90.8508H72.8114C74.5646 90.8508 75.6449 91.263 75.6449 93.372C75.6329 95.3435 74.5103 95.935 72.4221 95.9559ZM72.8386 91.8246H72.4221V95.0776C73.8132 95.0358 74.4107 94.761 74.4107 93.3929C74.4137 91.9113 73.8042 91.8246 72.8416 91.8246H72.8386Z" fill="#384951"/>
<path d="M80.8719 95.8516H77.6461C77.6461 97.2616 78.4397 97.3781 78.9527 97.3781C79.4939 97.3412 80.0287 97.2409 80.546 97.0793V98.086C80.0321 98.2574 79.4948 98.35 78.9527 98.3608C77.806 98.3608 76.436 98.0621 76.436 95.4484C76.436 93.1184 77.6431 92.5359 78.7385 92.5359C79.7343 92.5359 80.9322 93.0019 80.8689 95.4484L80.8719 95.8516ZM78.7596 93.3932C78.0535 93.3932 77.6883 93.8592 77.6793 95.057H79.7011C79.6649 93.8383 79.3812 93.3932 78.7385 93.3932H78.7596Z" fill="#384951"/>
<path d="M85.6999 98.2773V94.2416C85.6999 93.6591 85.371 93.5845 84.9214 93.5845C84.4117 93.6204 83.9205 93.7883 83.4971 94.0714V98.2773H82.29V92.6614H83.2617L83.476 93.3067C83.998 92.8635 84.6515 92.6004 85.3378 92.5569C86.2793 92.5569 86.9341 92.9482 86.9341 94.2297V98.2773H85.6999Z" fill="#384951"/>
<path d="M89.6741 98.3729C89.1916 98.3529 88.7138 98.2706 88.2528 98.128V97.1123C88.699 97.2479 89.1581 97.3379 89.6228 97.3812C90.1479 97.3812 90.5975 97.2856 90.5975 96.7031C90.5975 96.2281 90.2776 96.1057 89.8491 95.9414L89.3452 95.7412C88.8744 95.5501 88.1562 95.1886 88.1562 94.1939C88.1562 92.999 89.0615 92.542 90.1599 92.542C90.6341 92.5448 91.1043 92.6266 91.551 92.784V93.7488C91.1217 93.6223 90.6794 93.5442 90.2323 93.5158C89.6771 93.5158 89.3271 93.6622 89.3271 94.1132C89.3271 94.5643 89.7133 94.6957 90.0754 94.8331L90.6216 95.0333C90.9691 95.131 91.2727 95.3426 91.4827 95.6335C91.6927 95.9244 91.7966 96.2773 91.7774 96.6344C91.7713 98.1399 90.6699 98.3729 89.6741 98.3729Z" fill="#384951"/>
<path d="M93.6664 91.8575C93.4702 91.8453 93.2862 91.7596 93.1516 91.6178C93.017 91.476 92.9421 91.2888 92.9421 91.0943C92.9421 90.8997 93.017 90.7125 93.1516 90.5707C93.2862 90.4289 93.4702 90.3432 93.6664 90.3311C93.8625 90.3432 94.0466 90.4289 94.1812 90.5707C94.3157 90.7125 94.3906 90.8997 94.3906 91.0943C94.3906 91.2888 94.3157 91.476 94.1812 91.6178C94.0466 91.7596 93.8625 91.8453 93.6664 91.8575ZM93.0629 98.2679V92.6521H94.2699V98.2769L93.0629 98.2679Z" fill="#384951"/>
<path d="M98.1296 98.3725C97.0463 98.3725 95.6763 98.0021 95.6763 95.4601C95.6763 92.9688 97.0372 92.5476 98.1296 92.5476C99.2219 92.5476 100.58 92.9061 100.58 95.4601C100.58 98.0141 99.1978 98.3725 98.1296 98.3725ZM98.1296 93.4258C97.5411 93.4258 96.8984 93.5961 96.8984 95.4601C96.8984 97.324 97.6468 97.4824 98.1296 97.4824C98.6124 97.4824 99.3577 97.2912 99.3577 95.4601C99.3577 93.5513 98.718 93.4258 98.1296 93.4258Z" fill="#384951"/>
<path d="M105.363 98.2773V94.2416C105.363 93.6591 105.031 93.5845 104.581 93.5845C104.072 93.6204 103.58 93.7883 103.157 94.0714V98.2773H101.95V92.6614H102.9L103.115 93.3067C103.637 92.8635 104.29 92.6004 104.977 92.5569C105.918 92.5569 106.57 92.9482 106.57 94.2297V98.2773H105.363Z" fill="#384951"/>
<path d="M116.597 98.2769L116.546 94.9074C116.546 93.9008 116.609 92.8403 116.609 92.8403C116.609 92.8403 116.223 93.7723 115.806 94.5789L114.575 96.9417L113.344 94.5789C112.906 93.7425 112.553 92.8523 112.553 92.8523C112.553 92.8523 112.638 93.838 112.617 94.9074L112.556 98.2769H111.349L111.606 90.8599H112.593L114.581 95.0419L116.603 90.8599H117.557L117.807 98.2769H116.597Z" fill="#384951"/>
<path d="M122.418 98.2773L122.279 97.6798C122.095 97.8985 121.864 98.0738 121.603 98.1932C121.342 98.3125 121.057 98.3729 120.77 98.3699C120.073 98.3699 119.131 98.104 119.131 96.5776C119.131 95.0511 120.384 94.7853 121.283 94.7853H122.236V94.2745C122.236 93.6054 121.883 93.5426 121.295 93.5426C120.732 93.5763 120.174 93.6765 119.635 93.8414V92.8556C120.238 92.6658 120.865 92.5651 121.497 92.5569C122.568 92.5569 123.456 92.8317 123.456 94.379V98.2773H122.418ZM122.249 95.4903H121.681C120.815 95.5142 120.366 95.7023 120.366 96.5298C120.366 97.3035 120.719 97.4409 121.156 97.4409C121.557 97.4141 121.94 97.2625 122.249 97.0077V95.4903Z" fill="#384951"/>
<path d="M128.658 98.2773V94.2416C128.658 93.6591 128.327 93.5845 127.877 93.5845C127.367 93.6204 126.876 93.7883 126.453 94.0714V98.2773H125.246V92.6614H126.22L126.435 93.3067C126.957 92.8635 127.61 92.6004 128.296 92.5569C129.238 92.5569 129.89 92.9482 129.89 94.2297V98.2773H128.658Z" fill="#384951"/>
<path d="M134.458 98.2773L134.319 97.6798C134.135 97.8985 133.904 98.0738 133.643 98.1932C133.382 98.3125 133.098 98.3729 132.81 98.3699C132.116 98.3699 131.175 98.104 131.175 96.5776C131.175 95.0511 132.427 94.7853 133.326 94.7853H134.283V94.2745C134.283 93.6054 133.93 93.5426 133.341 93.5426C132.778 93.5769 132.221 93.6772 131.682 93.8414V92.8556C132.284 92.6661 132.912 92.5655 133.544 92.5569C134.615 92.5569 135.502 92.8317 135.502 94.379V98.2773H134.458ZM134.286 95.4903H133.719C132.853 95.5142 132.403 95.7023 132.403 96.5298C132.403 97.3035 132.756 97.4409 133.194 97.4409C133.595 97.4141 133.977 97.2625 134.286 97.0077V95.4903Z" fill="#384951"/>
<path d="M141.06 93.5213C141.185 93.6429 141.283 93.7882 141.349 93.9484C141.414 94.1086 141.447 94.2804 141.444 94.4533C141.444 95.8185 140.557 96.38 139.316 96.38C139.018 96.3827 138.721 96.3363 138.438 96.2426C138.357 96.2946 138.289 96.3631 138.237 96.4435C138.185 96.5238 138.15 96.6142 138.136 96.7086C138.136 97.0073 138.305 97.0283 138.74 97.0492L140.216 97.1328C141.275 97.1955 141.917 97.4614 141.917 98.5846C141.917 99.9945 140.891 100.377 139.202 100.377C137.844 100.377 136.999 99.9527 136.999 98.9042C137.009 98.6815 137.072 98.4643 137.181 98.2694C137.291 98.0746 137.444 97.9074 137.629 97.781C137.494 97.6977 137.385 97.58 137.311 97.4402C137.238 97.3004 137.204 97.1437 137.213 96.9864C137.234 96.7728 137.306 96.5672 137.423 96.3865C137.54 96.2058 137.699 96.0551 137.886 95.9469C137.653 95.7752 137.468 95.5486 137.347 95.2877C137.225 95.0267 137.172 94.7399 137.192 94.4533C137.192 93.0763 138.097 92.5386 139.331 92.5386C139.811 92.5386 139.95 92.6431 140.315 92.6431H142.038V93.5124L141.06 93.5213ZM139.884 98.0977L138.535 98.023C138.459 98.023 138.308 98.0021 138.308 98.0021C138.163 98.1998 138.081 98.4359 138.073 98.6802C138.073 99.2417 138.426 99.5763 139.187 99.5763C140.321 99.5763 140.792 99.2985 140.792 98.6802C140.792 98.2022 140.578 98.1395 139.884 98.0977ZM139.316 93.3182C138.64 93.3182 138.333 93.6797 138.333 94.4414C138.333 95.2031 138.661 95.5855 139.316 95.5855C139.971 95.5855 140.3 95.1822 140.3 94.4414C140.3 93.7006 139.947 93.3302 139.316 93.3302V93.3182Z" fill="#384951"/>
<path d="M147.096 95.8516H143.885C143.885 97.2616 144.678 97.3781 145.191 97.3781C145.733 97.3412 146.267 97.2409 146.785 97.0793V98.086C146.271 98.2574 145.734 98.35 145.191 98.3608C144.045 98.3608 142.675 98.0621 142.675 95.4484C142.675 93.1184 143.882 92.5359 144.977 92.5359C145.973 92.5359 147.171 93.0019 147.105 95.4484L147.096 95.8516ZM144.983 93.3932C144.277 93.3932 143.912 93.8592 143.903 95.057H145.925C145.907 93.8383 145.62 93.3932 144.977 93.3932H144.983Z" fill="#384951"/>
<path d="M150.53 93.7219C150.227 93.725 149.937 93.8425 149.718 94.0505V98.2773H148.511V92.6614H149.474L149.634 93.3186C149.732 93.0992 149.89 92.9115 150.091 92.7769C150.291 92.6422 150.526 92.566 150.768 92.5569C150.952 92.5594 151.135 92.5805 151.315 92.6196V93.8384C151.058 93.7716 150.795 93.7325 150.53 93.7219Z" fill="#384951"/>
<path d="M153.408 98.3725C152.926 98.3526 152.448 98.2702 151.987 98.1276V97.112C152.433 97.2496 152.892 97.3416 153.357 97.3868C153.879 97.3868 154.329 97.2912 154.329 96.7087C154.329 96.2337 154.009 96.1113 153.58 95.947L153.076 95.7468C152.606 95.5557 151.89 95.1942 151.89 94.1995C151.89 93.0046 152.796 92.5476 153.891 92.5476C154.365 92.5504 154.835 92.6322 155.282 92.7896V93.7544C154.854 93.6282 154.413 93.55 153.967 93.5214C153.408 93.5214 153.061 93.6678 153.061 94.1188C153.061 94.5699 153.447 94.7013 153.81 94.8387L154.356 95.0389C154.703 95.1366 155.007 95.3482 155.217 95.6391C155.427 95.93 155.531 96.2829 155.512 96.64C155.505 98.1395 154.404 98.3725 153.408 98.3725Z" fill="#384951"/>
<path d="M156.031 0H72.6912V82.499H156.031V0Z" fill="#E04403"/>
<path d="M141.262 11.7278H120.426V32.354H141.262V11.7278Z" fill="white"/>
<path d="M89.3421 69.1137C85.1175 69.1137 80.5911 67.9457 80.5911 57.7625C80.5911 47.5794 86.068 45.7512 90.6246 45.7512C93.9047 45.7512 96.0019 46.9192 96.0019 46.9192V50.5546C96.0019 50.5546 92.9542 49.4194 90.6246 49.4194C88.295 49.4194 85.1929 50.6531 85.1929 57.4369C85.1929 64.6061 87.607 65.4873 89.2908 65.4873C90.3368 65.4588 91.379 65.3499 92.408 65.1617V58.3032H89.2757L88.9498 54.8321H96.9857V67.9457C96.9857 67.9457 92.9421 69.1137 89.3421 69.1137Z" fill="white"/>
<path d="M114.819 49.96H109.771V68.779H105.178V49.96H99.6047V46.0767H115.345L114.819 49.96Z" fill="white"/>
<path d="M124.627 69.1132C120.791 69.1132 116.494 67.9184 116.494 57.4275C116.494 46.9366 121.911 45.7418 125.049 45.7418C126.499 45.713 127.939 45.9889 129.274 46.5513V50.2195C129.274 50.2195 127.044 49.4429 125.272 49.4429C123.042 49.4429 121.075 50.7721 121.075 57.4275C121.075 63.3689 122.487 65.3823 124.946 65.3823C126.422 65.3296 127.881 65.0556 129.274 64.5698V68.238C129.274 68.238 127.542 69.1132 124.627 69.1132Z" fill="white"/>
<path d="M139.935 69.1136C136.395 69.1136 131.736 68.3997 131.736 57.4279C131.736 46.4561 136.688 45.7422 139.935 45.7422C143.182 45.7422 148.133 46.5218 148.133 57.4279C148.133 68.4983 143.378 69.1136 139.935 69.1136ZM139.935 48.9892C137.641 48.9892 136.314 50.4828 136.314 57.4279C136.314 64.4716 137.985 65.8696 139.935 65.8696C141.935 65.8696 143.556 64.5702 143.556 57.4279C143.544 50.6112 142.165 48.9892 139.935 48.9892Z" fill="white"/>
</svg>